<svg xmlns="http://www.w3.org/2000/svg" viewBox="0 0 252 252"><title>SnapDoc menu bar</title><path fill="#000" d="M55.76 63.36L92.97 63.36A38.92 38.92 0 0 0 131.69 106.07L126.95 106.07L126.95 101.32A38.92 38.92 0 0 0 169.66 140.05L169.66 215.22A22.78 22.78 0 0 1 146.88 238L55.76 238A22.78 22.78 0 0 1 32.98 215.22L32.98 86.14A22.78 22.78 0 0 1 55.76 63.36Z"/><path fill="#000" d="M184.85 48.17L184.85 32.98A18.98 18.98 0 0 0 146.88 32.98L146.88 48.17L131.69 48.17A18.98 18.98 0 0 0 131.69 86.14L146.88 86.14L146.88 101.32A18.98 18.98 0 0 0 184.85 101.32L184.85 86.14L200.03 86.14A18.98 18.98 0 0 0 200.03 48.17Z"/></svg>
